<svg width="27" height="15" viewBox="0 0 27 15" fill="none" xmlns="http://www.w3.org/2000/svg">
<path d="M13.6914 7.26562C13.6914 8.78906 13.3919 10.0977 12.793 11.1914C12.2005 12.2852 11.3867 13.1152 10.3516 13.6816C9.31641 14.248 8.15104 14.5312 6.85547 14.5312C5.55339 14.5312 4.38151 14.248 3.33984 13.6816C2.30469 13.1152 1.48763 12.2852 0.888672 11.1914C0.296224 10.0977 0 8.78906 0 7.26562C0 5.74219 0.296224 4.43359 0.888672 3.33984C1.48763 2.24609 2.30469 1.41602 3.33984 0.849609C4.375 0.283203 5.54688 0 6.85547 0C8.15104 0 9.31641 0.283203 10.3516 0.849609C11.3867 1.41602 12.2005 2.24609 12.793 3.33984C13.3919 4.43359 13.6914 5.74219 13.6914 7.26562ZM9.86328 7.26562C9.86328 5.97005 9.60286 4.97721 9.08203 4.28711C8.56771 3.59049 7.82552 3.24219 6.85547 3.24219C5.87891 3.24219 5.13021 3.59049 4.60938 4.28711C4.08854 4.97721 3.82812 5.97005 3.82812 7.26562C3.82812 8.5612 4.08854 9.55729 4.60938 10.2539C5.13021 10.944 5.87891 11.2891 6.85547 11.2891C7.82552 11.2891 8.56771 10.944 9.08203 10.2539C9.60286 9.55729 9.86328 8.5612 9.86328 7.26562ZM15.5273 12.2656L22.2656 3.20312H15.5469V0.195312H26.9922V2.26562L20.2539 11.3281H26.9727V14.3359H15.5273V12.2656Z" fill="#6201E0"/>
</svg>
